<svg height="512" viewBox="0 0 64 64" width="512" xmlns="http://www.w3.org/2000/svg"><g id="website-web_browser-computer-mouse-keyboard" data-name="website-web browser-computer-mouse-keyboard"><path d="m59 36a3.009 3.009 0 0 0 3-3v-24a3.009 3.009 0 0 0 -3-3h-11.1a5.017 5.017 0 0 0 -4.9-4h-36a5 5 0 0 0 -5 5v24a5 5 0 0 0 5 5h14v4h-1a3.009 3.009 0 0 0 -3 3v2a1 1 0 0 0 1 1h14a1 1 0 0 0 1-1v-2a3.009 3.009 0 0 0 -3-3h-1v-4h17v6a3.009 3.009 0 0 0 3 3h6a1 1 0 0 1 1 1v2.1a5.017 5.017 0 0 0 -4 4.9v4a5 5 0 0 0 10 0v-4a5.017 5.017 0 0 0 -4-4.9v-2.1a3.009 3.009 0 0 0 -3-3h-6a1 1 0 0 1 -1-1v-6zm-1 17v-2.82a3.01 3.01 0 0 1 2 2.82v4a3 3 0 0 1 -6 0v-4a3.01 3.01 0 0 1 2-2.82v2.82zm1-45a1 1 0 0 1 1 1v5h-28v-5a1 1 0 0 1 1-1zm-29 34a1 1 0 0 1 1 1v1h-12v-1a1 1 0 0 1 1-1zm-7-2v-4h4v4zm-16-6a3.009 3.009 0 0 1 -3-3v-3h26v5a3 3 0 0 0 .18 1zm23-25v17h-26v-19a3.009 3.009 0 0 1 3-3h36a3.01 3.01 0 0 1 2.82 2h-12.82a3.009 3.009 0 0 0 -3 3zm3 25a1 1 0 0 1 -1-1v-17h28v17a1 1 0 0 1 -1 1z"/><path d="m34 10h2v2h-2z"/><path d="m38 10h2v2h-2z"/><path d="m42 10h2v2h-2z"/><path d="m41 48h-32a5 5 0 0 0 -5 5v4a5 5 0 0 0 5 5h32a5 5 0 0 0 5-5v-4a5 5 0 0 0 -5-5zm3 9a3.009 3.009 0 0 1 -3 3h-32a3.009 3.009 0 0 1 -3-3v-4a3.009 3.009 0 0 1 3-3h32a3.009 3.009 0 0 1 3 3z"/><path d="m20 56h10v2h-10z"/><path d="m12 52h2v2h-2z"/><path d="m8 52h2v2h-2z"/><path d="m16 52h2v2h-2z"/><path d="m12 56h2v2h-2z"/><path d="m8 56h2v2h-2z"/><path d="m16 56h2v2h-2z"/><path d="m36 56h2v2h-2z"/><path d="m32 56h2v2h-2z"/><path d="m40 56h2v2h-2z"/><path d="m20 52h2v2h-2z"/><path d="m24 52h2v2h-2z"/><path d="m28 52h2v2h-2z"/><path d="m32 52h2v2h-2z"/><path d="m36 52h2v2h-2z"/><path d="m40 52h2v2h-2z"/></g></svg>