<?xml version="1.0" standalone="no"?>
<!DOCTYPE svg PUBLIC "-//W3C//DTD SVG 20010904//EN"
 "http://www.w3.org/TR/2001/REC-SVG-20010904/DTD/svg10.dtd">
<svg version="1.0" xmlns="http://www.w3.org/2000/svg"
 width="295.000000pt" height="171.000000pt" viewBox="0 0 295.000000 171.000000"
 preserveAspectRatio="xMidYMid meet">
<metadata>
Created by potrace 1.16, written by Peter Selinger 2001-2019
</metadata>
<g transform="translate(0.000000,171.000000) scale(0.100000,-0.100000)"
fill="#000000" stroke="none">
<path d="M676 1617 c-16 -12 -17 -43 -17 -427 0 -228 1 -418 1 -422 0 -5 14
-8 30 -8 l30 0 0 405 0 405 633 1 c347 0 671 0 718 -1 63 -1 88 2 91 12 4 10
-6 13 -41 11 -31 -1 -38 1 -21 5 17 5 -2 9 -55 13 -65 4 -52 6 72 7 186 2 184
4 181 -106 0 -42 -3 -61 -6 -42 -4 29 -6 32 -12 15 -8 -18 -9 -18 -9 5 -1 20
-3 22 -12 10 -8 -11 -9 -6 -7 23 2 20 0 37 -4 37 -4 0 -8 -151 -8 -335 0 -217
4 -335 10 -335 6 0 10 -11 10 -24 l0 -24 -160 5 -159 6 -11 -28 c-16 -41 -9
-58 28 -74 31 -14 44 -41 20 -41 -7 0 -24 -3 -37 -7 -22 -5 -23 -4 -19 20 4
23 2 27 -18 27 -22 0 -24 -4 -24 -44 0 -39 3 -45 23 -48 16 -2 23 -11 25 -30
l3 -28 -65 0 -66 0 0 -30 c0 -25 4 -30 25 -30 16 0 25 6 25 15 0 11 11 15 43
15 l44 0 -5 -148 c-4 -130 -3 -150 12 -165 16 -15 47 -17 292 -17 l274 0 1 28
c1 19 3 21 6 7 2 -11 6 -30 8 -41 3 -14 15 -24 32 -27 16 -3 41 -9 57 -13 29
-7 133 13 142 28 9 14 15 316 8 385 -5 54 -9 62 -30 67 -21 6 -24 12 -24 56
l0 49 -42 3 c-38 3 -41 5 -27 18 24 22 12 52 -20 48 -22 -3 -26 -8 -29 -40 -3
-32 0 -37 20 -40 20 -3 23 -9 23 -43 0 -39 -1 -40 -35 -43 -87 -6 -80 10 -80
-195 l0 -182 -134 3 -135 3 -4 27 -4 27 -2 -27 c-1 -25 -5 -28 -33 -27 -24 1
-27 3 -10 6 20 4 22 10 22 59 l0 55 -62 -2 c-35 -1 -57 -4 -50 -6 19 -7 15
-43 -5 -43 -28 0 -47 16 -40 34 4 9 2 16 -3 16 -6 0 -9 -26 -9 -57 1 -32 3
-50 6 -40 2 9 10 17 16 17 7 0 6 4 -3 10 -10 7 10 9 65 8 l80 -1 -60 -7 c-53
-6 -55 -7 -20 -10 22 -1 45 -2 52 -1 6 1 14 -3 18 -9 3 -5 -3 -10 -14 -10 -12
0 -21 -4 -21 -10 0 -6 -35 -10 -85 -10 l-85 0 0 145 0 145 79 0 c55 0 82 4 90
14 14 16 5 77 -12 88 -17 11 -37 10 -38 -2 -1 -5 -2 -15 -3 -22 -2 -18 -26
-22 -26 -4 0 10 -9 16 -25 16 -18 0 -23 -4 -19 -15 4 -9 0 -15 -10 -15 -9 0
-16 7 -16 15 0 8 -4 15 -10 15 -5 0 -10 18 -10 40 0 22 -4 40 -10 40 -5 0 -10
5 -10 10 0 6 9 10 20 10 11 0 20 -4 20 -10 0 -5 23 -10 50 -10 37 0 50 -4 50
-14 0 -8 5 -18 12 -22 7 -4 8 -3 4 4 -4 7 -1 12 8 12 9 0 16 -6 17 -12 0 -7 5
-2 10 11 9 22 13 23 68 17 l58 -7 6 152 c4 84 7 271 7 416 0 250 -1 264 -20
283 -20 20 -33 20 -808 20 -625 0 -792 -3 -806 -13z m2074 -1173 l0 -184 -110
0 -110 0 0 185 0 184 93 3 c141 5 127 25 127 -188z"/>
<path d="M1048 1183 c-34 -4 -38 -7 -38 -34 0 -19 -5 -29 -15 -29 -11 0 -15
-11 -15 -43 l0 -44 88 14 c48 7 97 18 109 23 l23 10 -20 50 c-11 28 -20 53
-20 55 0 5 -51 4 -112 -2z"/>
<path d="M980 860 c0 -86 2 -100 16 -100 14 0 14 3 4 15 -7 8 -9 15 -4 16 45
5 235 5 243 -1 6 -3 23 -22 37 -41 l25 -34 -2 123 -1 122 -159 0 -159 0 0
-100z"/>
<path d="M1365 950 c17 -3 40 -12 53 -19 14 -7 22 -8 22 -1 0 6 32 10 80 10
64 0 80 -3 80 -15 0 -8 4 -15 9 -15 5 0 7 10 4 21 -4 16 -2 20 8 17 20 -6 26
-188 7 -200 -10 -6 -10 -8 0 -8 20 0 14 -23 -13 -48 -18 -18 -32 -22 -52 -18
-16 3 -41 2 -58 -4 -29 -9 -29 -9 8 -6 20 2 39 1 41 -3 5 -8 185 -6 193 3 3 2
16 1 29 -4 20 -8 24 -6 24 9 0 25 -19 31 -91 31 l-58 0 -3 128 -3 127 -155 1
c-85 1 -141 -2 -125 -6z"/>
<path d="M52 748 c-7 -7 -12 -34 -12 -60 0 -43 2 -48 23 -49 l22 0 -22 -9
c-17 -7 -23 -17 -23 -42 0 -56 6 -59 121 -56 l104 3 3 104 c2 77 -1 107 -10
113 -21 13 -192 10 -206 -4z"/>
<path d="M367 743 c-4 -3 -7 -12 -7 -20 0 -10 59 -13 313 -13 326 0 500 7 492
21 -3 4 5 10 17 12 13 2 -164 5 -393 6 -229 0 -419 -2 -422 -6z"/>
<path d="M1258 691 c11 -7 11 -9 -2 -14 -12 -5 -16 -21 -16 -63 0 -52 1 -55
17 -43 9 8 14 9 10 3 -4 -7 0 -14 8 -18 10 -3 15 1 15 11 0 13 3 14 11 6 17
-17 1 -33 -32 -33 l-29 0 0 -180 0 -180 -260 0 -260 0 4 28 c2 15 7 35 11 44
5 13 2 18 -9 18 -12 0 -16 -10 -16 -45 0 -33 -4 -45 -15 -45 -11 0 -15 12 -15
45 l0 45 -116 0 -116 0 4 -45 c3 -45 3 -45 -29 -45 l-33 0 1 98 c1 115 7 136
37 140 20 3 22 -1 22 -48 0 -44 2 -51 18 -46 9 2 37 8 60 11 38 6 43 10 39 27
-4 14 0 22 14 25 18 5 19 7 4 29 -8 13 -15 35 -15 50 0 26 0 27 -17 8 -14 -15
-30 -19 -72 -17 -30 1 -60 -2 -67 -7 -8 -8 -11 -3 -9 15 4 31 -3 32 -15 3 -7
-18 -9 -9 -9 38 -1 47 3 63 15 68 8 3 13 2 10 -3 -8 -12 29 -20 45 -10 20 12
41 11 33 -2 -5 -8 -2 -9 11 -1 11 5 30 6 47 2 25 -8 28 -6 28 16 0 24 -1 24
-90 24 -53 0 -90 4 -90 10 0 6 -7 10 -15 10 -13 0 -15 -33 -15 -240 l0 -240
460 0 460 0 0 28 0 27 271 1 c148 1 274 5 279 10 5 5 -60 6 -158 1 -92 -4
-218 -4 -279 -1 l-113 6 0 109 0 109 188 2 c103 1 145 4 95 5 l-93 4 0 48 0
49 -37 4 c-42 5 -63 -9 -63 -41 0 -12 -6 -21 -15 -21 -9 0 -15 9 -15 25 0 14
-4 25 -10 25 -5 0 -10 16 -10 35 0 19 5 35 10 35 6 0 10 7 10 15 0 8 7 15 15
15 8 0 15 -7 15 -15 0 -8 5 -15 10 -15 6 0 10 -8 10 -18 0 -25 67 -28 73 -3 3
9 5 4 6 -11 1 -28 2 -28 66 -28 l65 0 0 30 0 30 -65 0 -65 0 0 35 c0 31 -3 35
-36 41 -20 4 -58 4 -85 1 -35 -4 -53 -2 -63 8 -8 8 -21 15 -28 15 -11 0 -11
-2 0 -9z"/>
<path d="M700 651 c-11 -22 -11 -81 0 -126 5 -21 8 -24 9 -9 1 19 5 20 51 14
54 -7 80 8 80 46 0 10 5 26 10 34 9 13 11 13 20 0 5 -8 10 -24 10 -36 0 -25
34 -59 50 -49 6 4 9 14 6 24 -5 14 -4 14 6 1 16 -19 56 -24 74 -9 17 14 19
100 2 117 -8 8 -58 12 -160 12 -135 0 -148 -2 -158 -19z"/>
<path d="M877 468 c-3 -20 1 -39 9 -49 20 -23 18 -24 -26 -25 -38 -1 -40 0
-25 16 19 21 20 69 1 76 -8 3 -28 -2 -45 -10 -34 -18 -45 -20 -37 -7 3 4 -26
8 -64 9 -54 0 -70 -3 -70 -14 0 -8 -7 -14 -15 -14 -8 0 -15 5 -15 11 0 5 5 7
10 4 6 -3 10 -1 10 4 0 6 -7 11 -16 11 -24 0 -12 -35 14 -38 19 -3 27 -18 23
-44 0 -5 3 -8 9 -8 5 0 9 10 7 22 -1 17 4 24 21 26 18 3 22 -1 22 -22 0 -17
-4 -24 -13 -20 -8 3 -13 -5 -15 -24 l-2 -28 171 -3 c120 -2 174 1 185 10 9 7
14 31 14 64 0 50 -2 54 -31 64 -18 6 -33 11 -35 11 -1 0 0 -10 3 -21 6 -21 4
-21 -39 5 l-46 27 -5 -33z"/>
<path d="M252 89 c28 -16 1122 -17 1137 -1 9 9 -105 12 -571 12 -394 -1 -577
-4 -566 -11z"/>
</g>
</svg>
